<?xml version="1.0" standalone="no"?>
<!DOCTYPE svg PUBLIC "-//W3C//DTD SVG 20010904//EN"
 "http://www.w3.org/TR/2001/REC-SVG-20010904/DTD/svg10.dtd">
<svg version="1.0" xmlns="http://www.w3.org/2000/svg"
 width="292.000000pt" height="292.000000pt" viewBox="0 0 292.000000 292.000000"
 preserveAspectRatio="xMidYMid meet">
<metadata>
Created by potrace 1.11, written by Peter Selinger 2001-2013
</metadata>
<g transform="translate(0.000000,292.000000) scale(0.100000,-0.100000)"
fill="#000000" stroke="none">
<path d="M192 2899 c-73 -28 -143 -99 -170 -172 l-22 -57 1 -1213 c0 -1205 0
-1212 21 -1267 27 -69 99 -141 170 -169 52 -20 70 -20 1278 -18 l1225 2 50 23
c64 30 129 101 155 169 20 53 20 73 17 1271 -1 669 -5 1228 -9 1240 -25 82
-100 160 -188 193 -48 18 -98 19 -1262 18 -1192 0 -1214 0 -1266 -20z"/>
</g>
</svg>
