<svg width="93" height="93" viewBox="0 0 93 93" fill="none" xmlns="http://www.w3.org/2000/svg">
<path d="M86.7617 24.2967C82.6036 17.1722 76.9634 11.5318 69.8395 7.37408C62.7146 3.21616 54.9364 1.13773 46.4993 1.13773C38.0632 1.13773 30.2824 3.21679 23.159 7.37408C16.0345 11.5316 10.3945 17.1722 6.23635 24.2967C2.07885 31.421 0 39.2007 0 47.6357C0 57.7681 2.95616 66.8794 8.86996 74.9719C14.7831 83.0651 22.4221 88.6652 31.7861 91.773C32.8761 91.9753 33.683 91.833 34.2077 91.3497C34.7325 90.8658 34.9946 90.2597 34.9946 89.534C34.9946 89.413 34.9842 88.3236 34.9641 86.2647C34.9433 84.2057 34.9336 82.4096 34.9336 80.877L33.5409 81.1179C32.653 81.2806 31.5329 81.3495 30.1806 81.33C28.8289 81.3111 27.4257 81.1694 25.9728 80.9061C24.5194 80.645 23.1675 80.0396 21.9161 79.091C20.6653 78.1424 19.7774 76.9008 19.2526 75.368L18.6471 73.9748C18.2436 73.0472 17.6082 72.0168 16.7402 70.8873C15.8723 69.7568 14.9945 68.9904 14.1066 68.5869L13.6827 68.2834C13.4003 68.0818 13.1381 67.8385 12.8958 67.5563C12.6536 67.274 12.4723 66.9915 12.3512 66.7087C12.2299 66.4255 12.3304 66.1933 12.6538 66.0112C12.9772 65.829 13.5616 65.7406 14.4097 65.7406L15.6201 65.9215C16.4275 66.0833 17.4261 66.5666 18.6172 67.3743C19.8077 68.1814 20.7864 69.2307 21.5534 70.5217C22.4823 72.1771 23.6013 73.4385 24.9138 74.3064C26.2252 75.1744 27.5474 75.6077 28.8792 75.6077C30.2109 75.6077 31.3611 75.5067 32.3303 75.3059C33.2983 75.104 34.2066 74.8005 35.0546 74.3972C35.4179 71.6917 36.407 69.6133 38.021 68.1604C35.7205 67.9187 33.6523 67.5546 31.8152 67.0704C29.9791 66.5857 28.0818 65.7989 26.1245 64.708C24.1661 63.6187 22.5414 62.2659 21.2502 60.6521C19.9587 59.0375 18.8988 56.9177 18.072 54.2947C17.2447 51.6706 16.831 48.6436 16.831 45.2129C16.831 40.328 18.4257 36.1712 21.6145 32.74C20.1207 29.0675 20.2618 24.9505 22.038 20.3894C23.2086 20.0258 24.9445 20.2987 27.245 21.2065C29.5459 22.1148 31.2305 22.8928 32.3006 23.5379C33.3706 24.1828 34.228 24.7293 34.874 25.1725C38.6285 24.1234 42.5031 23.5988 46.4988 23.5988C50.4945 23.5988 54.37 24.1234 58.1248 25.1725L60.4254 23.7201C61.9987 22.751 63.8566 21.8629 65.9946 21.0555C68.1339 20.2486 69.7698 20.0264 70.9005 20.3901C72.7162 24.9513 72.878 29.0681 71.3838 32.7406C74.5724 36.1718 76.1677 40.3297 76.1677 45.2135C76.1677 48.6443 75.7525 51.6808 74.9265 54.325C74.0995 56.9697 73.0304 59.0873 71.719 60.6825C70.4062 62.2774 68.7712 63.6195 66.8138 64.7087C64.8561 65.7987 62.9581 66.5854 61.1221 67.0702C59.2852 67.555 57.2169 67.9193 54.9165 68.1615C57.0146 69.9772 58.0639 72.8432 58.0639 76.7583V89.5323C58.0639 90.258 58.3162 90.8639 58.8214 91.348C59.3259 91.8313 60.1226 91.9736 61.2126 91.7711C70.5779 88.6637 78.2169 83.0634 84.1298 74.9702C90.0421 66.8777 92.9994 57.7664 92.9994 47.634C92.9972 39.2001 90.9173 31.421 86.7617 24.2967Z" fill="#7A7A7A" fill-opacity="0.5"/>
</svg>
