<svg width="93" height="71" viewBox="0 0 93 71" fill="none" xmlns="http://www.w3.org/2000/svg">
  <path d="M86.7641 70.8518H5.86869C2.73194 70.8518 0.0904541 68.2738 0.0904541 65.0306V6.15378C0.0904541 2.99373 2.64939 0.332626 5.86869 0.332626H86.7641C89.9008 0.332626 92.5423 2.91057 92.5423 6.15378V65.0306C92.5423 68.2738 89.9834 70.8518 86.7641 70.8518Z" fill="#7A7A7A" fill-opacity="0.2"/>
  <path opacity="0.1" d="M11.6468 70.8518L46.2337 42.8271L46.4813 41.3302L10.8213 15.4676L10.7388 69.6044L11.6468 70.8518Z" fill="#7A7A7A" fill-opacity="0.2"/>
  <path d="M5.86869 70.8518C2.64939 70.8518 0.0904541 68.2738 0.0904541 65.0306V6.07065C0.0904541 2.82743 2.64939 2.24532 5.86869 2.24532C9.088 2.24532 11.6469 2.91059 11.6469 6.07065V70.8518H5.86869Z" fill="#7A7A7A" fill-opacity="0.2"/>
  <path d="M5.86869 3.07691C9.99601 3.07691 10.8215 4.3243 10.8215 6.07065V70.0202H5.86869C3.14467 70.0202 0.915917 67.7749 0.915917 65.0306V6.07065C0.915917 4.24114 1.74138 3.07691 5.86869 3.07691ZM5.86869 2.24532C2.64939 2.24532 0.0904541 2.91059 0.0904541 6.07065V65.0306C0.0904541 68.2738 2.64939 70.8518 5.86869 70.8518H11.6469V6.07065C11.6469 2.82743 9.088 2.24532 5.86869 2.24532Z" fill="#7A7A7A" fill-opacity="0.2"/>
  <path d="M86.764 70.8518H80.9857V5.90433C80.9857 2.66111 83.5447 2.24532 86.764 2.24532C89.9833 2.24532 92.5422 2.66111 92.5422 5.90433V65.1138C92.5422 68.2738 89.9833 70.8518 86.764 70.8518Z" fill="#7A7A7A" fill-opacity="0.2"/>
  <path d="M86.764 3.07691C90.4785 3.07691 91.7167 3.82534 91.7167 5.90433V65.1138C91.7167 67.8581 89.488 70.1034 86.764 70.1034H81.8112V5.90433C81.8112 3.74218 83.0494 3.07691 86.764 3.07691ZM86.764 2.24532C83.5447 2.24532 80.9857 2.66111 80.9857 5.90433V70.935H86.764C89.9833 70.935 92.5422 68.357 92.5422 65.1138V5.90433C92.5422 2.66111 89.9833 2.24532 86.764 2.24532Z" fill="#7A7A7A" fill-opacity="0.2"/>
  <path d="M62.0001 70.8518L0.573975 8.48879L3.80493 9.8128L46.5639 40.8312L92.5422 6.86594L92.5422 65.1138C92.5422 68.2738 89.9833 70.8518 86.764 70.8518H62.0001Z" fill="#7A7A7A" fill-opacity="0.2"/>
  <path d="M46.2342 42.8277L2.5672 10.8945C0.0082652 8.98185 -0.734651 5.32284 1.16391 2.7449C3.06248 0.166958 6.77706 -0.415158 9.41854 1.49751L46.3167 28.5243L83.4626 1.16487C86.0215 -0.747795 89.6535 -0.16568 91.5521 2.49542C93.4507 5.07336 92.8728 8.73237 90.2314 10.645L46.2342 42.8277Z" fill="#7A7A7A" fill-opacity="0.2"/>
  <path d="M86.7643 0.831594C88.3327 0.831594 89.8185 1.58003 90.8091 2.91058C92.3774 5.15588 91.8822 8.23278 89.736 9.89597L46.2341 41.8292L3.06237 10.2286C0.833622 8.56542 0.255798 5.40536 1.82418 3.24322C2.73219 1.99582 4.30057 1.16423 5.95149 1.16423C7.02459 1.16423 8.09769 1.49687 8.92316 2.16214L45.7388 29.1058L46.2341 29.4384L46.7294 29.1058L83.7926 1.74635C84.7006 1.16423 85.6912 0.831594 86.7643 0.831594ZM86.7643 0C85.6087 0 84.3705 0.332637 83.3799 1.08107L46.2341 28.4405L9.33589 1.41371C8.34533 0.665275 7.10714 0.332637 5.86894 0.332637C4.05293 0.332637 2.23691 1.16423 1.08126 2.74426C-0.734757 5.3222 0.00815933 8.98121 2.56709 10.8939L46.2341 42.9102L90.1487 10.6444C92.7076 8.73173 93.2855 5.15588 91.4694 2.49478C90.3138 0.831594 88.5803 0 86.7643 0Z" fill="#7A7A7A" fill-opacity="0.2"/>
</svg>
