<svg width="93" height="92" viewBox="0 0 93 92" fill="none" xmlns="http://www.w3.org/2000/svg">
<path d="M84.5874 0H8.41261C3.7665 0 0 3.726 0 8.32215V83.6776C0 88.274 3.7665 92 8.41261 92H84.5872C89.2335 92 93 88.274 93 83.6776V8.32215C93 3.726 89.2335 0 84.5874 0ZM28.7781 79.4389C28.7781 80.7765 27.6821 81.8607 26.33 81.8607H15.9086C14.5564 81.8607 13.4604 80.7765 13.4604 79.4389V36.2227C13.4604 34.8851 14.5564 33.8008 15.9086 33.8008H26.33C27.6821 33.8008 28.7781 34.8851 28.7781 36.2227V79.4389ZM21.1193 29.7271C15.6515 29.7271 11.2189 25.3421 11.2189 19.9332C11.2189 14.5242 15.6515 10.1393 21.1193 10.1393C26.587 10.1393 31.0196 14.5242 31.0196 19.9332C31.0196 25.3421 26.5873 29.7271 21.1193 29.7271ZM83.2399 79.6339C83.2399 80.8637 82.232 81.8607 80.9889 81.8607H69.806C68.5629 81.8607 67.555 80.8637 67.555 79.6339V59.3631C67.555 56.3392 68.4517 46.112 59.5665 46.112C52.6745 46.112 51.2766 53.1122 50.9959 56.2537V79.6339C50.9959 80.8637 49.9882 81.8607 48.7449 81.8607H37.9291C36.6861 81.8607 35.6782 80.8637 35.6782 79.6339V36.0276C35.6782 34.7979 36.6861 33.8008 37.9291 33.8008H48.7449C49.988 33.8008 50.9959 34.7979 50.9959 36.0276V39.7979C53.5514 36.004 57.3493 33.0757 65.4357 33.0757C83.3424 33.0757 83.2399 49.6251 83.2399 58.7182V79.6339Z" fill="#7A7A7A" fill-opacity="0.5"/>
</svg>
