<svg width="88" height="88" viewBox="0 0 88 88" fill="none" xmlns="http://www.w3.org/2000/svg">
<g clip-path="url(#clip0)">
<path d="M88 16.7168C84.7611 18.152 81.2858 19.1253 77.6344 19.5599C81.3627 17.3272 84.2167 13.7859 85.5693 9.5792C82.0721 11.6468 78.2117 13.1481 74.0984 13.9619C70.8046 10.4481 66.1195 8.25949 60.9229 8.25949C50.9533 8.25949 42.8698 16.343 42.8698 26.3071C42.8698 27.7203 43.0292 29.1005 43.3372 30.4204C28.3361 29.6669 15.0342 22.4798 6.13136 11.5588C4.57512 14.2203 3.6898 17.3216 3.6898 20.6321C3.6898 26.8955 6.87922 32.422 11.7184 35.6552C8.75986 35.5563 5.97736 34.7425 3.5414 33.3897V33.6151C3.5414 42.3585 9.76625 49.6556 18.0201 51.3164C16.5079 51.7233 14.9132 51.9488 13.2635 51.9488C12.0978 51.9488 10.9705 51.8333 9.86518 51.6133C12.1637 58.7895 18.8285 64.0079 26.7251 64.151C20.5497 68.9901 12.7631 71.8661 4.3058 71.8661C2.84862 71.8661 1.4133 71.7781 0.00012207 71.6186C7.99015 76.7492 17.4759 79.7406 27.6709 79.7406C60.8792 79.7406 79.0313 52.2348 79.0313 28.3803L78.9708 26.0433C82.5175 23.5135 85.5859 20.3352 88 16.7168Z" fill="#7A7A7A" fill-opacity="0.5"/>
</g>
<defs>
<clipPath id="clip0">
<rect width="88" height="88" fill="white"/>
</clipPath>
</defs>
</svg>
